<svg enable-background="new 0 0 64 64" viewBox="0 0 64 64" xmlns="http://www.w3.org/2000/svg"><circle cx="32" cy="32" fill="#e0995e" r="32"/><g fill="#231f20" opacity=".2"><path d="m48 26v-8h-32v8 24h32z"/><path d="m48 14h-32c-2.2 0-4 1.8-4 4v8 24c0 2.2 1.8 4 4 4h32c2.2 0 4-1.8 4-4v-24-8c0-2.2-1.8-4-4-4z"/></g><path d="m16 50c-1.1 0-2-.9-2-2v-32c0-1.1.9-2 2-2h32c1.1 0 2 .9 2 2v32c0 1.1-.9 2-2 2z" fill="#77b3d4"/><path d="m48 16v8 24h-32v-24-8zm0-4h-32c-2.2 0-4 1.8-4 4v8 24c0 2.2 1.8 4 4 4h32c2.2 0 4-1.8 4-4v-24-8c0-2.2-1.8-4-4-4z" fill="#fff"/><path d="m16 44h32v4h-32z" fill="#fff"/><path d="m14 44h34.9v-2.9s-1.7-3-3.3-4.8c-1.2-1.4-2.9-1.8-4.5-.1l-2.8 2.6-6-7.6c-2.2-2.8-5.9-2.8-8.1 0z" fill="#4f5d73"/><circle cx="40" cy="24" fill="#f5cf87" r="3"/><path d="m48 16v8 24h-32v-24-8zm0-4h-32c-2.2 0-4 1.8-4 4v8 24c0 2.2 1.8 4 4 4h32c2.2 0 4-1.8 4-4v-24-8c0-2.2-1.8-4-4-4z" fill="#fff"/></svg>