<?xml version="1.0" encoding="UTF-8"?>
<svg id="Layer_1" data-name="Layer 1" xmlns="http://www.w3.org/2000/svg" viewBox="0 0 40 40">
  <defs>
    <style>
      .cls-1 {
        fill: #f16c4a;
      }

      .cls-1, .cls-2, .cls-3, .cls-4, .cls-5 {
        stroke-width: 0px;
      }

      .cls-1, .cls-3, .cls-4, .cls-5 {
        fill-rule: evenodd;
      }

      .cls-2 {
        fill: #fff;
      }

      .cls-3 {
        fill: #f68e6c;
      }

      .cls-4 {
        fill: #bd3b26;
      }

      .cls-5 {
        fill: #d75232;
      }
    </style>
  </defs>
  <path class="cls-1" d="M3.87,19.99C3.87,10.02,11.96,1.94,21.93,1.94v18.06H3.87Z"/>
  <path class="cls-3" d="M21.93,1.94c9.98,0,18.07,8.09,18.07,18.06h-18.07V1.94Z"/>
  <path class="cls-5" d="M40,19.99c0,9.98-8.09,18.07-18.07,18.07S3.87,29.98,3.87,19.99h36.13Z"/>
  <path class="cls-4" d="M2.01,9.71h16.18c1.09,0,1.99.9,1.99,2.01v16.4c0,1.11-.9,2.01-1.99,2.01H2.01c-1.11,0-2.01-.9-2.01-2.01V11.71c0-1.11.9-2.01,2.01-2.01h0Z"/>
  <path class="cls-2" d="M5.89,25.52v-11.22h3.55c1.33,0,2.2.06,2.61.17.65.16,1.18.54,1.6,1.11.43.55.63,1.3.63,2.18,0,.81-.17,1.48-.54,2.04-.36.55-.82.93-1.37,1.15-.54.22-1.48.33-2.83.33h-1.45v4.23h-2.2ZM8.09,16.2v3.19h1.23c.82,0,1.39-.05,1.67-.14.3-.09.54-.27.73-.52s.28-.57.28-.93-.09-.7-.28-.95c-.21-.25-.44-.43-.73-.52-.28-.08-.9-.13-1.82-.13h-1.09Z"/>
</svg>