<?xml version="1.0" encoding="UTF-8"?>
<svg id="Layer_1" data-name="Layer 1" xmlns="http://www.w3.org/2000/svg" viewBox="0 0 40 40">
  <defs>
    <style>
      .cls-1 {
        fill: #2c5eab;
      }

      .cls-1, .cls-2, .cls-3, .cls-4, .cls-5, .cls-6 {
        stroke-width: 0px;
      }

      .cls-2 {
        fill: #51a3da;
      }

      .cls-2, .cls-4, .cls-5 {
        fill-rule: evenodd;
      }

      .cls-3 {
        fill: #fff;
      }

      .cls-4 {
        fill: #20438f;
      }

      .cls-5 {
        fill: #3668b2;
      }

      .cls-6 {
        fill: #3d7bbe;
      }
    </style>
  </defs>
  <path class="cls-2" d="M11.43,2.25h26.46c1.11,0,2.01.9,2.01,2.01v6.87H9.42v-6.87c0-1.11.9-2.01,2.01-2.01h0Z"/>
  <rect class="cls-6" x="9.42" y="11.12" width="30.48" height="8.88"/>
  <rect class="cls-1" x="9.42" y="20" width="30.48" height="8.88"/>
  <path class="cls-4" d="M39.9,28.88v6.88c0,1.09-.9,1.99-2.01,1.99H11.43c-1.11,0-2.01-.9-2.01-1.99v-6.88h30.48Z"/>
  <path class="cls-5" d="M2.1,9.7h16.2c1.11,0,2.01.9,2.01,2.01v16.42c0,1.11-.9,2.01-2.01,2.01H2.1c-1.09,0-1.99-.9-1.99-2.01V11.71c0-1.11.9-2.01,1.99-2.01h0Z"/>
  <polygon class="cls-3" points="6.23 25.17 3.3 14.67 5.69 14.67 7.41 21.55 9.03 14.67 11.37 14.67 12.9 21.55 14.69 14.67 17.1 14.67 14.14 25.17 11.75 25.17 10.18 18.42 8.6 25.17 6.23 25.17"/>
</svg>