<?xml version="1.0" encoding="utf-8"?>
<!-- Generator: Adobe Illustrator 27.3.1, SVG Export Plug-In . SVG Version: 6.00 Build 0)  -->
<svg version="1.1" id="a1cb9ae2-45c7-4710-b3ee-d75707dd75d7"
	 xmlns="http://www.w3.org/2000/svg" xmlns:xlink="http://www.w3.org/1999/xlink" x="0px" y="0px" viewBox="0 0 865.8 682.9"
	 style="enable-background:new 0 0 865.8 682.9;" xml:space="preserve">
<style type="text/css">
	.st0{fill:#EBEBEB;}
	.st1{fill:#F0F0F0;}
	.st2{fill:#F5F5F5;}
	.st3{fill:#E0E0E0;}
	.st4{fill:#E6E6E6;}
	.st5{fill:#CCCCCC;}
	.st6{opacity:0.5;fill:#FFFFFF;enable-background:new    ;}
	.st7{opacity:0.1;enable-background:new    ;}
	.st8{fill:#D1D3D4;}
	.st9{fill:#0071F2;}
	.st10{opacity:0.6;enable-background:new    ;}
	.st11{fill:#2F2E41;}
	.st12{fill:#F9B499;}
	.st13{fill:#F4A48E;}
	.st14{fill:#FFFFFF;}
	.st15{opacity:0.3;enable-background:new    ;}
	.st16{opacity:0.2;enable-background:new    ;}
	.st17{opacity:0.4;enable-background:new    ;}
	.st18{opacity:0.2;fill:#FFFFFF;enable-background:new    ;}
	.st19{fill:#263238;}
	.st20{opacity:0.7;fill:#FFFFFF;enable-background:new    ;}
	.st21{opacity:0.6;fill:#FFFFFF;enable-background:new    ;}
	.st22{fill:#407BFF;}
	.st23{fill:#BCBEC0;}
	.st24{opacity:0.7;enable-background:new    ;}
	.st25{fill:#FFC3BD;}
	.st26{opacity:0.3;fill:#FFFFFF;enable-background:new    ;}
	.st27{fill:#3F3D56;}
</style>
<g id="ef863172-59f6-4d36-a805-f70f85127a40">
	<rect x="721.7" y="628.1" class="st0" width="57.3" height="0.4"/>
	<rect x="558.5" y="632.8" class="st0" width="15" height="0.4"/>
	<rect x="686.7" y="612.1" class="st0" width="33.2" height="0.4"/>
	<rect x="90.8" y="615" class="st0" width="74.8" height="0.4"/>
	<rect x="181.1" y="615" class="st0" width="11" height="0.4"/>
	<rect x="227.6" y="622.3" class="st0" width="162.2" height="0.4"/>
	<path class="st0" d="M412.8,523H78.4c-5.5,0-9.9-4.4-9.9-9.9l0,0v-470c0-5.4,4.5-9.8,9.9-9.8h334.4c5.5,0,9.9,4.4,9.9,9.9
		c0,0,0,0,0,0l0,0v469.9C422.7,518.6,418.3,523,412.8,523C412.8,523,412.8,523,412.8,523z M78.4,33.7c-5.2,0-9.4,4.2-9.4,9.5v470
		c0,5.2,4.2,9.4,9.5,9.5h334.3c5.2,0,9.4-4.2,9.5-9.5v-470c0-5.2-4.2-9.4-9.5-9.5L78.4,33.7z"/>
	<path class="st0" d="M787.3,523H453c-5.5,0-9.9-4.4-9.9-9.9l0,0v-470c0-5.4,4.5-9.8,9.9-9.8h334.3c5.5,0,9.9,4.4,9.9,9.9
		c0,0,0,0,0,0v469.9C797.2,518.6,792.8,523,787.3,523C787.3,523,787.3,523,787.3,523z M453,33.7c-5.2,0-9.4,4.2-9.5,9.5v470
		c0,5.2,4.2,9.4,9.5,9.5h334.3c5.2,0,9.4-4.2,9.5-9.5v-470c0-5.2-4.2-9.4-9.5-9.5L453,33.7z"/>
	<rect y="600.3" class="st0" width="865.8" height="0.4"/>
	<path class="st0" d="M692.6,383.4l-26.5-8.2c-0.9-0.3-1.3-1.3-1-2.2c0.2-0.7,0.9-1.1,1.6-1.1l30.5,1.6
		c-7.2-12.5-11.5-20.4-16.3-30.1c-0.4-0.9,0-1.9,0.9-2.3c0.7-0.3,1.4-0.1,1.9,0.4c6.5,7.3,12,13.3,20.7,22.6
		c2.1-12.1,4.5-23.3,7.5-34.5c0.3-0.9,1.3-1.4,2.2-1.1c0.7,0.2,1.2,0.9,1.2,1.6c-0.8,9-1.1,18.1-0.9,27.1l0.8,0.3
		c7.3-8.4,15-16.4,23-24.1c0.7-0.6,1.8-0.5,2.4,0.3c0.5,0.6,0.5,1.4,0.1,2c-7.8,9.9-15,20.2-21.5,30.9c10.5-4,21-7.8,31.5-11.5
		c0.9-0.3,1.9,0.2,2.2,1.2c0.2,0.7-0.1,1.5-0.7,2c-11,6.2-21.8,12.6-32.6,19.1l27.9,8.9c0.9,0.3,1.4,1.3,1.1,2.2
		c-0.2,0.7-0.9,1.2-1.7,1.2l-28.7-1.7c5.7,6.6,9.6,11.2,14.2,16.3c0.6,0.7,0.5,1.8-0.2,2.4c-0.6,0.5-1.4,0.5-2,0.1
		c-5.8-3.8-10.8-7.2-18.2-12.1c0.8,5.9,1.4,10.4,2.2,14.9c0.1,0.9-0.6,1.8-1.5,1.9c-0.7,0.1-1.5-0.3-1.8-1
		c-1.9-4.9-3.7-9.8-5.9-16.2c-8.3,39.8-6.2,78.5,1.9,118.1l-10-1.7c-5.9-38.9-4.3-78.6,4.7-116.9c-5,5.2-8.7,9.1-12.1,13
		c-0.7,0.6-1.8,0.6-2.5-0.1c-0.5-0.5-0.6-1.3-0.3-1.9c2.4-3.9,4.9-7.9,8.3-13c-8.9,2-15,3.3-21.8,4.8c-0.9,0.2-1.8-0.5-2-1.4
		c-0.1-0.7,0.2-1.5,0.9-1.8C678.4,390.1,684.1,387.4,692.6,383.4z"/>
	<path class="st1" d="M678.5,397.1l20.3-10.8c1.1-0.6,1.6-2,1-3.1c-0.5-1-1.6-1.5-2.6-1.2l-25.1,6.2c4.1-11.8,6.7-19.7,9.2-28.4
		c0.4-1.2-0.3-2.5-1.5-2.9c-1-0.3-2.1,0.1-2.6,1c-4.1,6.9-8,13.2-13.8,22.4c-3.6-9.4-7-18.2-11-26.7c-0.5-1.1-1.9-1.6-3.1-1.1
		c-1,0.5-1.5,1.6-1.2,2.6c1.7,6.8,3.2,13.6,4.3,20.3l-0.8,0.5c-6.6-5.1-13.3-10-20.2-14.7c-1.1-0.7-2.5-0.4-3.2,0.6
		c-0.6,0.9-0.5,2.2,0.3,3c7.3,6.6,14.2,13.6,20.8,20.9c-8.9-1.5-17.8-3-26.8-4.4c-1.3-0.2-2.4,0.7-2.6,1.9c-0.2,1.1,0.5,2.2,1.5,2.5
		c9.9,3.5,19.7,6.9,29.4,10.6l-21.6,11.7c-1.2,0.5-1.7,1.9-1.2,3c0.5,1.1,1.8,1.6,2.9,1.2l23.3-5.9c-3.4,5.9-6,10.4-8.7,14.9
		c-0.7,1.1-0.3,2.5,0.7,3.2c0.9,0.6,2.1,0.4,2.9-0.3l12.4-12.2c0.2,3.5,0.4,6.5,0.5,9.4c0,1.3,1.1,2.3,2.4,2.2c1.1,0,2-0.8,2.2-1.9
		c0.6-3.5,1.1-7.1,1.7-11.4c15.6,37.6,20.8,75.9,20.2,116.4l9.5-3.6c-1.5-39.3-10.4-78-26.4-114c3.6,2.5,6.6,4.7,9.4,6.7
		c1,0.8,2.4,0.7,3.3-0.2c0.8-1,0.7-2.4-0.2-3.2c-1.9-2-3.9-4.1-6.3-6.5c6.9,0.2,12.2,0.4,17.3,0.5c1.3,0,2.3-1,2.4-2.2
		c0-1.1-0.7-2-1.7-2.3C690.7,400.3,685.5,398.9,678.5,397.1z"/>
	<path class="st2" d="M714.4,419l-15.2-8.1c-0.8-0.4-1.1-1.4-0.7-2.2c0.4-0.6,1.1-1,1.8-0.8l18.7,4.7c-3-8.8-4.9-14.6-6.8-21.1
		c-0.4-0.8,0-1.8,0.9-2.1c0.8-0.4,1.8,0,2.1,0.9l0,0c3.1,5.1,6,9.8,10.3,16.6c2.6-7,5.3-13.5,8.3-19.9c0.5-0.8,1.5-1,2.2-0.5
		c0.6,0.3,0.8,1,0.8,1.6c-1.3,5.2-2.4,10.4-3.3,15.4l0.5,0.3c5-3.9,10.1-7.6,15.3-11.2c0.7-0.6,1.7-0.6,2.3,0.1
		c0.6,0.7,0.6,1.7-0.1,2.3c-0.1,0.1-0.1,0.1-0.2,0.2c-5.5,4.9-10.7,10.1-15.6,15.6c6.7-1.2,13.3-2.3,20-3.3c0.9-0.2,1.7,0.4,1.9,1.3
		c0.2,0.8-0.3,1.6-1.1,1.9c-7.3,2.6-14.7,5.2-22,7.9l16.1,8.6c0.8,0.5,1,1.4,0.6,2.2c-0.4,0.6-1.1,0.9-1.8,0.8l-17.3-4.4
		c2.5,4.5,4.5,7.8,6.5,11.1c0.5,0.8,0.2,1.8-0.6,2.2c-0.6,0.4-1.4,0.3-2-0.2l-9.3-9.2c-0.2,2.8-0.3,5.1-0.4,7.3
		c0,0.9-0.8,1.6-1.7,1.6c-0.8,0-1.4-0.6-1.6-1.4c-0.4-2.6-0.9-5.4-1.3-8.8c-11.4,27.4-15.1,55.4-14.7,84.9l-6.9-2.6
		c1.1-28.7,7.6-56.9,19.2-83.1c-2.8,2-5.2,3.6-7.2,5.2c-0.7,0.6-1.7,0.5-2.3-0.1c-0.6-0.7-0.5-1.7,0.1-2.3c1.5-1.6,3.1-3.2,5-5.2
		l-13,0.4c-0.9,0-1.7-0.7-1.7-1.6c0-0.8,0.5-1.4,1.2-1.6C705.3,421.4,709.2,420.3,714.4,419z"/>
	<path class="st3" d="M671.7,600h51.6c3.6,0,6.6-2.8,6.8-6.4l5.5-89.1c0.2-3.9-76.5-3.9-76.2,0l5.5,89.1
		C665.1,597.2,668.1,600,671.7,600z"/>
	<path class="st4" d="M668.5,394.2c-1.4-1.1-2.1-2.9-1.8-4.6l1.2-9.9l-2.7,4.6c-1.4,2.5-4.6,3.4-7.1,1.9c0,0,0,0,0,0
		c-0.2-0.1-0.4-0.2-0.6-0.4l-5.2-3.9l4.7,7.6c1.4,2.2,1,5-1,6.7l-6.1,5.2l6-1.4c2.6-0.6,5.3,0.9,6.1,3.5l2.1,6.3l1.3-6.7
		c0.5-2.8,3.3-4.7,6.1-4.1c0.2,0,0.3,0.1,0.5,0.1l4,1.2L668.5,394.2z"/>
	<path class="st2" d="M703,377.2c1-0.8,1.5-2.1,1.3-3.4l-0.8-7.2l1.9,3.4c1,1.8,3.4,2.5,5.2,1.4c0.1-0.1,0.3-0.2,0.4-0.3l3.8-2.9
		l-3.5,5.6c-1,1.6-0.7,3.7,0.8,4.9l4.5,3.8l-4.4-1c-1.9-0.4-3.9,0.7-4.5,2.5l-1.5,4.6l-1-4.9c-0.4-2.1-2.4-3.4-4.5-3l-0.3,0.1
		l-2.9,0.9L703,377.2z"/>
	<path class="st4" d="M723.4,418.5c0.7-0.6,1.1-1.5,1-2.4l-0.6-5.2l1.4,2.4c0.8,1.3,2.4,1.8,3.7,1c0,0,0,0,0,0l0.3-0.2l2.7-2.1
		l-2.5,4c-0.7,1.1-0.5,2.6,0.5,3.5l3.2,2.8l-3.1-0.7c-1.4-0.3-2.7,0.4-3.2,1.7l-1.1,3.3l-0.8-3.5c-0.3-1.5-1.7-2.5-3.2-2.2
		c0,0,0,0,0,0l-0.2,0.1l-2.1,0.6L723.4,418.5z"/>
	<path class="st2" d="M620.7,173H666c1.3,0,2.3,1,2.3,2.3v8.8c0,1.3-1,2.3-2.3,2.3h-45.3c-1.3,0-2.3-1-2.3-2.3v-8.8
		C618.4,174.1,619.4,173,620.7,173z"/>
	<path class="st2" d="M605.5,189.6h45.3c1.3,0,2.3,1,2.3,2.3v8.8c0,1.3-1,2.3-2.3,2.3h-45.3c-1.3,0-2.3-1-2.3-2.3v-8.8
		C603.2,190.6,604.2,189.6,605.5,189.6z"/>
	<path class="st1" d="M657.7,189.6H703c1.3,0,2.3,1,2.3,2.3v8.8c0,1.3-1,2.3-2.3,2.3h-45.3c-1.3,0-2.3-1-2.3-2.3v-8.8
		C655.4,190.6,656.4,189.6,657.7,189.6z"/>
	<path class="st2" d="M161.8,265.4h48.3c1.3,0,2.3,1,2.3,2.3v9.6c0,1.3-1,2.3-2.3,2.3h-48.3c-1.3,0-2.3-1-2.3-2.3v-9.6
		C159.5,266.4,160.6,265.4,161.8,265.4z"/>
	<path class="st2" d="M161.8,300.6h48.3c1.3,0,2.3,1,2.3,2.3v9.6c0,1.3-1,2.3-2.3,2.3h-48.3c-1.3,0-2.3-1-2.3-2.3v-9.6
		C159.5,301.7,160.6,300.6,161.8,300.6z"/>
	<path class="st2" d="M145.7,283H194c1.3,0,2.3,1,2.3,2.3v9.6c0,1.3-1,2.3-2.3,2.3h-48.3c-1.3,0-2.3-1-2.3-2.3v-9.6
		C143.4,284,144.4,283,145.7,283z"/>
	<path class="st1" d="M201,283h48.3c1.3,0,2.3,1,2.3,2.3v9.6c0,1.3-1,2.3-2.3,2.3H201c-1.3,0-2.3-1-2.3-2.3v-9.6
		C198.7,284,199.8,283,201,283z"/>
	<path class="st2" d="M658.8,286.1h50.1c1.3,0,2.3,1,2.3,2.3v10.1c0,1.3-1,2.3-2.3,2.3h-50.1c-1.3,0-2.3-1-2.3-2.3v-10.1
		C656.5,287.1,657.5,286.1,658.8,286.1z"/>
	<path class="st2" d="M675.4,267.9h50.1c1.3,0,2.3,1,2.3,2.3v10.1c0,1.3-1,2.3-2.3,2.3h-50.1c-1.3,0-2.3-1-2.3-2.3v-10.1
		C673.2,268.9,674.2,267.9,675.4,267.9z"/>
	<path class="st1" d="M618.2,267.9h50.1c1.3,0,2.3,1,2.3,2.3v10.1c0,1.3-1,2.3-2.3,2.3h-50.1c-1.3,0-2.3-1-2.3-2.3v-10.1
		C616,268.9,617,267.9,618.2,267.9z"/>
	<path class="st2" d="M143.3,212.8h52.9c1.3,0,2.3,1,2.3,2.3V226c0,1.3-1,2.3-2.3,2.3h-52.9c-1.3,0-2.3-1-2.3-2.3v-10.9
		C141,213.8,142.1,212.8,143.3,212.8z"/>
	<path class="st2" d="M170.2,193.7h52.9c1.3,0,2.3,1,2.3,2.3v10.9c0,1.3-1,2.3-2.3,2.3h-52.9c-1.3,0-2.3-1-2.3-2.3V196
		C167.9,194.7,168.9,193.7,170.2,193.7z"/>
	<path class="st1" d="M110,193.7h52.9c1.3,0,2.3,1,2.3,2.3v10.9c0,1.3-1,2.3-2.3,2.3H110c-1.3,0-2.3-1-2.3-2.3V196
		C107.7,194.7,108.7,193.7,110,193.7z"/>
	<rect x="250.5" y="45" class="st4" width="2.3" height="69.3"/>
	<polygon class="st1" points="177.6,152.8 251.6,108.1 325.7,152.8 	"/>
	<polygon class="st2" points="256.8,152.8 251.6,108.1 284.9,152.8 	"/>
	<rect x="613" y="45" class="st4" width="2.3" height="69.3"/>
	<polygon class="st1" points="540.1,152.8 614.1,108.1 688.2,152.8 	"/>
	<polygon class="st2" points="619.2,152.8 614.1,108.1 647.4,152.8 	"/>
</g>
<path class="st5" d="M524.9,607.7c0,30.4,51.2,37.8,114.3,37.8s88.5-7.4,88.5-37.8s-17.7-67.4-80.9-67.4S524.9,577.3,524.9,607.7z"
	/>
<path class="st6" d="M525.4,605.8c0,30.4,51.2,37.8,114.3,37.8s88.5-7.4,88.5-37.8s-17.7-67.4-80.9-67.4S525.4,575.3,525.4,605.8z"
	/>
<path class="st5" d="M516.6,565.1c-2.3,41.8,9.2,64.4,35.6,65.8s49.6-31.2,51.9-73.1s-24.2-73.9-50.6-75.3S519,523.2,516.6,565.1z"
	/>
<path class="st6" d="M517.2,563.1c-2.3,41.8,9.2,64.4,35.6,65.8s49.6-31.2,51.9-73.1s-24.2-73.9-50.6-75.3S519.5,521.3,517.2,563.1z
	"/>
<path class="st7" d="M645.4,543.9c0,0,24.5-3.1,26.7,5.5s-40.5,3.9-49,12.5s27.8,13.1,19.9,18.3c-6.2,4.1-27.5-14.4-54.6-7.5
	s-31-13.5-28-32.5s5.2-39.4,13.4-37.9S608.8,541.4,645.4,543.9z"/>
<path class="st7" d="M569.1,574.9c0,0-25.4-4.5-26.8,6.2S539,576,569.1,574.9z"/>
<path class="st7" d="M528.1,619.8c-7.1-8.4-11-21.3-11.7-38.7c3.3,33.1,22.5,54.5,99.1,58s93.7-19.5,102-16.7
	c3.5,1.1,3.5,4.3,2.3,7.6c-11.7,12.1-37.3,15.6-80.7,15.6C585.5,645.5,540.4,640.1,528.1,619.8z"/>
<path class="st8" d="M660.1,478.3c-2.1,0.4-4.1,1.3-5.7,2.7c-2.1,2.1-8.3,1.9-8.3,1.9l-0.6,7l14.2-0.8L660.1,478.3z"/>
<path class="st9" d="M602.8,436.1c1.9-0.1,9,3.6,13.2,22.3s3.3,25,36.5,22.9l-1.1,9.3c0,0-28.8,3.1-37.4-3.8S596,436.5,602.8,436.1z
	"/>
<path class="st10" d="M612.4,459.2l1.6,2.9c0,0-1.7,17.6,1.6,25.8c-0.5-0.3-1-0.6-1.5-1c-2.3-1.9-4.7-6.4-6.8-12L612.4,459.2z"/>
<path class="st11" d="M565,401.8c0,0-0.2,5.5-2.8,6.6s1.9,7.4,0.6,11.2s-4.1,7.3-1,12.4c0,0-0.7-4.3,1.5-6.8c0,0-0.9,7.2,1.4,7.3
	s2.8-1.9,6.6-1s0.5-5.9,0.5-5.9c1.3,1.2,2.2,2.8,2.6,4.6c1,3.6,11.1-0.6,15.2,0.9s5.2-6.1,5.2-6.1s1.8,4.5,0.3,6
	c2.2-0.8,3.6-2.9,3.6-5.2c0.7,1.3,0.9,2.7,0.5,4.1c0,0,3.1-0.2,2.3-6.2s-5.5-7.8-6.7-12.5S578.5,397,578.5,397L565,401.8z"/>
<path class="st12" d="M573.1,420.1l12.9,8.4c0,9,6.5,8.5,6.5,8.5s0.1,3.1-7.7,4.3c-3.5,0.7-7,0.9-10.6,0.9
	C578,437.5,575,426.3,573.1,420.1z"/>
<path class="st13" d="M586.8,433.4c-0.6-1.5-1-3.2-0.9-4.9l-11.5-7.5l-0.7,1.3C573.7,422.3,578.1,433.9,586.8,433.4z"/>
<path class="st12" d="M569.4,406.4c1.3,10.5,1.6,15,7.3,20c8.5,7.6,21.1,3.7,22.9-6.9c1.7-9.6-0.8-25.1-11.3-28.6
	c-7.5-2.6-15.7,1.4-18.3,8.9C569.3,401.9,569,404.2,569.4,406.4L569.4,406.4z"/>
<path class="st11" d="M588.5,391.6c0,0,5.6,6.2-0.5,8.6s-11.7,6.2-12.6,11.4c-0.5,2.9-2.9,5.2-5.9,5.3c0,0-8.1-10.3-2.9-21.1
	S586.3,387.8,588.5,391.6z"/>
<path class="st11" d="M572.2,393.2c0,0,6.8-10.5,18.1-5.4s11.8,13.7,9,12.8s-7.4-1.7-10.7-7.6S572.2,393.2,572.2,393.2z"/>
<path class="st11" d="M573.9,412.9c0,0,5.6-0.3,2.9,7C576.5,417.3,575.5,414.9,573.9,412.9z"/>
<path class="st12" d="M567.4,414.9c0.7,1.9,2.1,3.5,4,4.3c2.5,1.1,4.1-1,3.8-3.5c-0.3-2.3-2-5.6-4.6-5.7c-1.9,0-3.5,1.5-3.5,3.5l0,0
	C567.1,414,567.2,414.5,567.4,414.9z"/>
<path class="st3" d="M647.6,502.4l-29.9-4.1c-0.5-0.1-0.8-0.5-0.8-1c0-0.1,0.1-0.2,0.1-0.3l18.5-36.1c0.5-1,1.6-1.6,2.7-1.4
	l29.9,4.1c0.5,0.1,0.8,0.5,0.8,1c0,0.1,0,0.2-0.1,0.3L650.2,501C649.7,502,648.7,502.5,647.6,502.4z"/>
<path class="st5" d="M648.7,502.6l-29.9-4.2c-0.5-0.1-0.8-0.5-0.8-1c0-0.1,0-0.2,0.1-0.3l18.6-36.1c0.5-1,1.6-1.6,2.7-1.4l29.9,4.1
	c0.5,0.1,0.9,0.6,0.8,1.1c0,0,0,0,0,0c0,0.1,0,0.2-0.1,0.3l-18.6,36.2C650.9,502.2,649.8,502.8,648.7,502.6z"/>
<path class="st3" d="M665.2,469.9l-3.5-0.5c0,0,0-0.1,0-0.1c0,0,0,0,0,0l0,0l2.1-4.2c0.1-0.1,0.2-0.2,0.3-0.1l3.5,0.5
	c0,0,0,0.1,0,0.1l0,0l-2.1,4.1C665.5,469.8,665.4,469.9,665.2,469.9z"/>
<path class="st14" d="M646.6,481.4c-0.5,1.4-1.7,2.4-2.6,2.3s-1.3-1.4-0.8-2.8s1.7-2.5,2.6-2.3S647.1,480,646.6,481.4z"/>
<polygon class="st12" points="676.9,615.9 682.5,639.2 690.7,636.3 688.3,612.6 "/>
<path class="st9" d="M691.4,635l-9.9,0.2c-0.4,0-0.8,0.3-0.9,0.7l-1.8,9.3c-0.1,0.8,0.4,1.6,1.2,1.7h0.3c4.1-0.2,7.7-0.5,12.8-0.5
	c6-0.1,4.5,0.6,11.5,0.6c4.3,0,5-4.9,3.2-5.1c-8.3-0.9-10.7-3.3-13.8-6.2C693.2,635.1,692.3,634.9,691.4,635z"/>
<path class="st11" d="M597.8,503l13-5c4.4,5,8.1,10.6,11.1,16.6c4.3,9-16.2,9-16.2,9l-6.5-12.1L597.8,503z"/>
<path class="st15" d="M600.8,507.1l13-5c4.4,5,8.2,10.6,11.2,16.6c4.3,9-16.2,9-16.2,9l-6.5-12.1L600.8,507.1z"/>
<path class="st16" d="M605.4,500.1c3.7,20.4,10.3,16.8,10.3,16.8l-2.9,4.3l-7.9,1l-5.7-10.7l-1.4-8.5L605.4,500.1z"/>
<polygon class="st12" points="720.3,573.5 738.6,595.3 745,590.5 729,566.2 "/>
<path class="st9" d="M741.8,584.4l-7.8,6.1c-0.4,0.3-0.5,0.7-0.3,1.1l3.7,8.7c0.3,0.8,1.2,1.1,2,0.8c0,0,0,0,0,0l0,0l0.3-0.2
	c3.3-2.4,6.1-4.8,10.2-7.7c4.9-3.5,4.1-2,9.9-6.1c3.5-2.4,1.3-6.8-0.3-6c-7.3,4-10.8,3-15.2,2.4
	C743.4,583.5,742.5,583.8,741.8,584.4z"/>
<path class="st11" d="M571.3,511.8c0,0-4.7,27.3,4.7,45s30.4,20.9,84.2-36.1c0,0,18.9,8.8,64.5,60.2l10.1-7.8
	c0,0-39.6-64.4-58.8-79.6s-61.7,27.7-67.1,25.3c-4.8-2.1-7.1-17-7.1-17L571.3,511.8z"/>
<path class="st11" d="M619.6,557.3c10.9-7.5,24.2-19.2,40.5-36.5c0,0,15.6-5.8,21,5.3s9,91.5,9,91.5l-13,3.7c0,0-23.2-72.5-23-77.3
	L619.6,557.3z"/>
<path class="st17" d="M619.6,555.8c10.9-7.5,24.2-19.2,40.5-36.5c0,0,15.6-5.8,21,5.3s9,91.5,9,91.5l-13,3.7c0,0-23.2-72.5-23-77.3
	L619.6,555.8z"/>
<path class="st16" d="M681.2,526.1c-0.9-1.8-2.2-3.4-3.9-4.5c4.6,2.5,11.1,8.3,11.9,22.4l0,0c-1.8-1.7-3.6-3.3-5.2-4.8
	C683.6,534.6,682.7,530.3,681.2,526.1z"/>
<path class="st16" d="M660.2,520.7c1.8-0.6,3.7-1,5.6-1.3c-5.7,10.4-12.8,19.9-21.2,28.2l-24.9,9.6
	C630.5,549.8,643.8,538,660.2,520.7z"/>
<path class="st9" d="M614.8,501.6c0,0-3.9,6.3-44.9,12.5c0,0,1.8-12.7-2.5-30.8s-20.3-35.1-4.7-39.5s42.6-13.5,44.9-3.6
	s6.5,14.1,6.4,21.9S608.1,475.5,614.8,501.6z"/>
<path class="st12" d="M665.1,481.5c0.2-0.8,0.1-1.7-0.3-2.5c-0.6-1.2-1.7-2.7-3.2-2.6c-2.5,0.2-3.2,2-3.8,4.3s-2.6,6.4-0.3,7.8
	S662.9,489.2,665.1,481.5z"/>
<path class="st9" d="M571.8,441.3c0,0,21.8,1.2,20.5-5c0,0-4.2-2-3.5-4.3s-10.4,0.1-14.8-0.5c-1.7-0.3-0.7,2.1-0.8,4.6
	C573.1,437.9,572.6,439.7,571.8,441.3z"/>
<path class="st18" d="M571.8,441.3c0,0,21.8,1.2,20.5-5c0,0-4.2-2-3.5-4.3s-10.4,0.1-14.8-0.5c-1.7-0.3-0.7,2.1-0.8,4.6
	C573.1,437.9,572.6,439.7,571.8,441.3z"/>
<path class="st10" d="M568.3,487.6l16-0.2l5.4-3.7l6.1-2.7l0.8,2.2c0,0-19,22.1-26.4,20.2C570,498.1,569.4,492.8,568.3,487.6z"/>
<path class="st10" d="M581.8,483.1c0,0-6.1,1.9-7.2-2.6c-1.5-6.4-6-24.2-10.5-31.1c-4.8-7.4,4.9,28.3,4.9,28.3l2.2,7.5l3.5,4.6
	l7.4-5.2L581.8,483.1z"/>
<path class="st10" d="M593,439.1c0,0,0.8,4.2-15.6,3.8C577.4,442.9,596.5,447.5,593,439.1z"/>
<polygon class="st19" points="608.3,474 608.1,472.2 606.8,472.9 "/>
<polygon class="st20" points="608.3,474 608.1,472.2 606.8,472.9 "/>
<polygon class="st19" points="593.4,452 593.6,450.9 594.9,450.1 596,450.5 607.9,470.3 608.2,472.2 606.8,473 605.3,471.9 "/>
<polygon class="st21" points="593.4,452 593.6,450.9 594.9,450.1 596,450.5 607.9,470.3 608.2,472.2 606.8,473 605.3,471.9 "/>
<rect x="599.3" y="450.5" transform="matrix(0.8577 -0.5141 0.5141 0.8577 -152.0022 374.2213)" class="st6" width="1.5" height="22.5"/>
<path class="st12" d="M590.8,477.1l6.8-5.7c0,0-1-11.4,2.7-11.5c3-0.1,5.4,3.5,6,8.4s-5,8-5,8l-6.5,7.2L590.8,477.1z"/>
<path class="st11" d="M452.4,367.9c0,0,15.2-9.4,23.1,4.1c5.6,9.5,2.5,19,6.9,26.9c6.9,12.1,2.3,17.9-8.1,20s-27.1,1.9-24.8-10.2
	C451.9,396.2,440.4,367.8,452.4,367.9z"/>
<path class="st12" d="M469,395c0,0,1.3,17.8,4.6,18.1c-4.9,2.3-10.6,2.3-15.6,0l-0.5-8.2L469,395z"/>
<polygon class="st22" points="395.6,646.4 389.5,646.4 391.5,551.4 399.6,551.4 "/>
<polygon class="st20" points="395.6,646.4 389.5,646.4 391.5,551.4 399.6,551.4 "/>
<polygon class="st3" points="445.8,646.4 439.6,646.4 441.6,551.4 449.8,551.4 "/>
<polygon class="st3" points="495.9,646.4 502,646.4 500.1,551.4 491.9,551.4 "/>
<rect x="396" y="551.4" class="st3" width="100.3" height="8.9"/>
<polygon class="st3" points="445.8,646.4 451.9,646.4 449.9,551.4 441.8,551.4 "/>
<path class="st5" d="M502.4,439h-16.6c-8.7,0-18,4.5-20.5,12.9c-6.9,23.7-12.1,97.9-12.1,97.9h44.5c5.4,0,9.9-4.1,10.5-9.4l9.3-84.5
	c0.9-8.3-5.1-15.9-13.4-16.8c0,0,0,0,0,0C503.5,439,503,439,502.4,439z"/>
<path class="st3" d="M492.3,439h-16.6c-8.6,0-18,4.5-20.4,12.9c-6.9,23.7-12.1,97.9-12.1,97.9H486c6.3,0,11.6-4.7,12.2-11l9.1-83
	c0.9-8.4-5.1-15.9-13.5-16.8c0,0,0,0,0,0C493.3,439,492.8,439,492.3,439z"/>
<path class="st3" d="M458.6,551.4h-65c-6,0-10.9-4.9-10.9-10.9l0,0c0-6,4.9-10.9,10.9-10.9h65V551.4z"/>
<path class="st5" d="M498.4,551.4h-42c-5.7,0-10.4-4.7-10.4-10.4v-0.9c0-5.7,4.7-10.4,10.4-10.4h0h42c6,0,10.9,4.9,10.9,10.9l0,0
	C509.2,546.6,504.4,551.4,498.4,551.4L498.4,551.4z"/>
<path class="st12" d="M437.4,436.8c0,0,1.5,15.8-6,22.5c-6.8,6.1-17.8,9.1-17.8,9.1l-9.6-2.8c-0.9-0.3-1.9,0-2.5,0.7l-4.3,5.2
	c-0.8,1.1-0.6,2.6,0.5,3.5c0,0,0,0,0,0l0,0c0.5,0.4,1.2,0.6,1.9,0.5l5-0.6c2,0.4,4,0.6,6.1,0.8c1.5-0.3,3.1-0.7,4.6-1.3
	c0,0,17.2-1.5,24.6-8.8s9.2-22.6,9.2-22.6L437.4,436.8z"/>
<polygon class="st12" points="386.6,605.1 387.8,639.7 395.5,639.7 399.1,604.5 "/>
<path class="st9" d="M387.6,636.1h8.8c0.4,0,0.7,0.3,0.8,0.6l1.8,8.3c0.2,0.7-0.3,1.4-1,1.6h-0.3c-3.7,0-6.9-0.3-11.5-0.3
	c-5.4,0-4,0.6-10.4,0.7c-3.8,0-4.5-4.3-2.9-4.5c7.4-0.9,9.6-3.2,12.4-5.8C386.1,636.3,386.9,636.1,387.6,636.1z"/>
<path class="st11" d="M477.2,475.2c0,0,24.1,54.8,1,54.8h-66.8c0,0-2.9,14.6-13.3,94.6h-11.2c0,0-1.9-93.8,4.3-107.7
	c4.8-11,35.9-18.8,50.5-21.7c3.9-0.8,7-4,7.5-7.9l3.3-13.5L477.2,475.2z"/>
<path class="st16" d="M477.2,475.2c0,0,24.1,54.8,1,54.8h-66.8c0,0-2.9,14.6-13.3,94.6h-11.2c0,0-1.9-93.8,4.3-107.7
	c4.8-11,35.9-18.8,50.5-21.7c3.9-0.8,7-4,7.5-7.9l3.3-13.5L477.2,475.2z"/>
<polygon class="st12" points="409.9,605.2 411.2,639.2 418.6,639.2 423.9,604.5 "/>
<path class="st9" d="M411.3,636.1h8.8c0.4,0,0.7,0.3,0.8,0.6l1.7,8.3c0.2,0.7-0.3,1.4-1,1.6h-0.3c-3.7,0-6.9-0.3-11.5-0.3
	c-5.4,0-4,0.6-10.4,0.7c-3.8,0-4.5-4.3-2.9-4.5c7.4-0.9,9.6-3.2,12.5-5.8C409.7,636.3,410.5,636.1,411.3,636.1z"/>
<path class="st11" d="M489.4,476.2c0,0,1.7,0,4.3,12.9c3.3,16.4,8.1,40.9-7.7,40.9h-51.1c0,0-2.5,5.9-13.4,94.6h-11.2
	c0,0-6.2-94.9,0-108.9c4.8-10.8,28.4-15.7,41.4-17.4c3.8-0.4,6.7-3.4,6.9-7.2c0.1-3.9-0.5-15.6-0.5-15.6L489.4,476.2z"/>
<path class="st9" d="M445.6,413.2c-6.2-0.9-9.8,14.4-10.1,28.9l14.8,3.5C450.3,445.5,457.3,414.9,445.6,413.2z"/>
<path class="st16" d="M445.6,413.2c-6.2-0.9-9.8,14.4-10.1,28.9l14.8,3.5C450.3,445.5,457.3,414.9,445.6,413.2z"/>
<path class="st9" d="M449.6,483.1c-0.4-7.8-1.2-15.6-2.4-23.3c-2.3-14.9-6.4-31.6-5-42.2c0.3-2.8,2.8-4.9,5.6-4.8h40.5
	c2.5,0.1,4.5,2.1,4.5,4.7c0,0.1,0,0.2,0,0.2c-1.4,11.4-4.9,39.6,0.5,66.3C493.2,484,462.3,486.4,449.6,483.1z"/>
<path class="st12" d="M484.6,433c0,0,2.7,18.4-5.4,23.6s-25.8,10.5-25.8,10.5l-11-2.3c-0.6-0.1-1.1,0.1-1.5,0.6l-4.4,7.1
	c-0.3,0.5-0.3,1.2,0.1,1.7l0,0c0.3,0.4,0.8,0.6,1.3,0.5l6.6-0.7c1.5,0.4,3.1,0.6,4.6,0.8c1.9-0.3,3.8-0.7,5.7-1.3
	c0,0,25.3-2.5,33.1-10.2s8.6-23.8,8.6-23.8L484.6,433z"/>
<path class="st9" d="M489.7,413.1c-7.9-0.9-5.8,16.6-6.7,28.9l14.7,1.7C497.7,443.8,501.4,414.5,489.7,413.1z"/>
<path class="st16" d="M489.7,413.1c-7.9-0.9-5.8,16.6-6.7,28.9l14.7,1.7C497.7,443.8,501.4,414.5,489.7,413.1z"/>
<path class="st9" d="M456.7,413.9c0,0-1.5,13.1,15.8,1.4c1.1-0.7,1.5-2.2,1-3.4c-0.8-1.6-1.2-3.4-1.3-5.2c0-0.8-0.7-1.5-1.6-1.4
	c-0.3,0-0.5,0.1-0.7,0.2c-3.5,2.3-7.6,3.4-11.8,3c-0.8-0.1-1.6,0.5-1.6,1.4c0,0,0,0,0,0c0,0.2,0,0.4,0.1,0.5
	C456.9,411.6,457,412.8,456.7,413.9z"/>
<path class="st18" d="M456.7,413.9c0,0-1.5,13.1,15.8,1.4c1.1-0.7,1.5-2.2,1-3.4c-0.8-1.6-1.2-3.4-1.3-5.2c0-0.8-0.7-1.5-1.6-1.4
	c-0.3,0-0.5,0.1-0.7,0.2c-3.5,2.3-7.6,3.4-11.8,3c-0.8-0.1-1.6,0.5-1.6,1.4c0,0,0,0,0,0c0,0.2,0,0.4,0.1,0.5
	C456.9,411.6,457,412.8,456.7,413.9z"/>
<path class="st13" d="M469.2,397.5L469.2,397.5c-0.1-1.5-0.2-2.5-0.2-2.5l-11.5,9.9l0.3,4.3C461.1,409,465.9,406.8,469.2,397.5z"/>
<path class="st12" d="M469.9,380.7c0.9,10.1,1.5,14.4-2.8,20.3c-6.4,8.9-19,7.8-23-1.7c-3.5-8.7-4.5-23.8,4.7-29.3
	c6.5-4,15.1-1.9,19,4.6C469,376.5,469.7,378.6,469.9,380.7L469.9,380.7z"/>
<path class="st12" d="M473.5,388.3c-0.3,2-1.3,3.7-2.9,4.9c-2.1,1.6-4.1-0.1-4.3-2.5s0.7-5.7,3.2-6.3c1.8-0.4,3.6,0.7,4,2.5
	c0,0,0,0,0,0.1C473.6,387.4,473.6,387.9,473.5,388.3L473.5,388.3z"/>
<path class="st11" d="M456.1,373.6c0,0-2.8,4.3-0.6,7.4s-12.4-3.3-16.2,3.3c0,0-4.8-20.5,16.8-17.8L456.1,373.6z"/>
<path class="st11" d="M455.4,372.3c0,0-1.6,8.2,3.7,10.8s5.2,9.3,10,8.2c6.9-1.7,2-22.7-9.2-24.9
	C451.6,364.6,455.4,372.3,455.4,372.3z"/>
<polygon class="st3" points="304.2,647.8 298.2,647.8 295.6,489.8 306.8,489.8 "/>
<polygon class="st3" points="370.1,647.8 364.1,647.8 361.5,489.8 372.7,489.8 "/>
<rect x="301.2" y="487.1" class="st5" width="112.7" height="12.4"/>
<rect x="413.8" y="487.1" class="st5" width="66.1" height="12.4"/>
<polygon class="st3" points="482.7,647.8 476.8,647.8 474.1,489.8 485.4,489.8 "/>
<path class="st5" d="M402.2,479.2h85.4c2.5,0,4.6,2.1,4.6,4.6v1.4c0,2.5-2.1,4.6-4.6,4.6h-85.4c-2.5,0-4.6-2.1-4.6-4.6v-1.4
	C397.6,481.3,399.6,479.2,402.2,479.2z"/>
<path class="st3" d="M290.9,479.2h116.9c2.5,0,4.6,2.1,4.6,4.6v1.4c0,2.5-2.1,4.6-4.6,4.6H290.9c-2.5,0-4.6-2.1-4.6-4.6v-1.4
	C286.3,481.3,288.3,479.2,290.9,479.2z"/>
<polygon class="st3" points="416.8,647.8 410.9,647.8 408.2,489.8 419.4,489.8 "/>
<path class="st3" d="M404.4,479.2c-1,0-1.7-0.8-1.7-1.7s0.8-1.7,1.7-1.7c0,0,0,0,0,0h48c1,0,1.7,0.8,1.7,1.7s-0.8,1.7-1.7,1.7
	c0,0,0,0,0,0H404.4z"/>
<path class="st3" d="M408.5,476.1l-6.4-45.4c-0.3-1.7-1.7-3-3.5-3h-6.1v51.5h13.4c1.4,0,2.6-1.1,2.6-2.5
	C408.5,476.5,408.5,476.3,408.5,476.1z"/>
<path class="st5" d="M403.3,479.2H349c-1.7,0-3.2-1.3-3.5-3l-6.4-45.4c-0.3-1.4,0.6-2.7,2-3c0,0,0,0,0,0c0.2,0,0.4,0,0.5,0H396
	c1.7,0,3.2,1.3,3.5,3l6.4,45.4c0.3,1.4-0.7,2.7-2.1,3c0,0,0,0,0,0C403.6,479.2,403.4,479.2,403.3,479.2z"/>
<path class="st20" d="M375.2,452.2c0.2,1.3-0.6,2.5-1.9,2.7c0,0,0,0,0,0c-0.2,0-0.3,0-0.5,0c-1.6,0-2.9-1.2-3.2-2.8
	c-0.2-1.3,0.6-2.5,1.9-2.7c0.2,0,0.3,0,0.5,0C373.6,449.5,374.9,450.6,375.2,452.2z"/>
<path class="st5" d="M212.4,466c-6.5,38,38.9,18.1,57,18.5c1.2,0,2.4,0.2,3.5,0.7l5.6,24.1l-5.4,25l-12.6,20h-78.9l-56.9-38.5
	l-14.5-45.2l4.1-73.2l1.7-11.8c0,0,1.7,14.5,41.6,10.9s71-16.4,80-3.6C248.4,408.2,216.7,440.9,212.4,466z"/>
<rect x="185.2" y="574.8" class="st3" width="13.7" height="62.3"/>
<rect x="232.3" y="574.8" class="st3" width="13.7" height="62.3"/>
<polygon class="st3" points="202.7,631.4 181.9,631.4 139.6,639.4 139.6,646.5 148.3,646.5 181.9,640.1 202.7,640.1 236.4,646.5 
	245.1,646.5 245.1,639.4 "/>
<path class="st5" d="M236.4,649.5h8.6c1.2,0,2.1-1,2.1-2.1s-1-2.1-2.1-2.1h-8.7c-1.2,0-2.1,1-2.1,2.1S235.2,649.5,236.4,649.5
	L236.4,649.5z"/>
<path class="st5" d="M139.6,649.5h8.7c1.2,0,2.1-1,2.1-2.1s-1-2.1-2.1-2.1h-8.7c-1.2,0-2.1,1-2.1,2.1S138.4,649.5,139.6,649.5z"/>
<path class="st5" d="M266.3,537h-81.8v-17.6h81.8c4.9,0,8.8,3.9,8.8,8.8l0,0C275.1,533.1,271.1,537.1,266.3,537L266.3,537z"/>
<path class="st12" d="M197.1,409.5c0,0,10.4,29.4,19,30.1s19-15.1,19-15.1l4.3-11.1l8.7-0.7v14l-8.8,4.5c0,0-13.5,22.2-24,21.7
	s-21.1-16.8-23.2-25.1C190.8,423,191.6,413.5,197.1,409.5z"/>
<polygon class="st5" points="250.5,433.7 253.6,408 241.8,407.2 241.4,433 "/>
<rect x="245.9" y="399.8" transform="matrix(6.714460e-02 -0.9977 0.9977 6.714460e-02 -173.6992 625.7374)" class="st23" width="3.7" height="11.9"/>
<path class="st3" d="M242,402.8l10.5,0.7c0.4,0,0.7,0.4,0.6,0.7c0,0,0,0,0,0l0,0l-0.1,1.9l0,0l-11.9-0.8l0,0l0.1-1.9
	C241.3,403,241.6,402.7,242,402.8L242,402.8z"/>
<path class="st9" d="M194.9,435.3c0,0-11.2-18.6-4.1-27.3s18.1,20.1,18.1,20.1L194.9,435.3z"/>
<path class="st16" d="M194.9,435.3c0,0-11.2-18.6-4.1-27.3s18.1,20.1,18.1,20.1L194.9,435.3z"/>
<path class="st9" d="M138.6,506.3c0,0-14.1-49.3,2.4-98.3c0,0,21.4-10,51.9-2.6c3.4,0.8,5.6,4.3,4.8,7.7c0,0,0,0,0,0
	c0,0,0,0.1,0,0.1c-3.1,11.9-7.8,40.2,3.6,76.1C182.2,499.9,160.6,505.7,138.6,506.3z"/>
<path class="st12" d="M165.4,402.9l10.4,9l6-5.3c-2.3-1.7-1.7-5.5-0.4-9.6l-14.7-11.6C167.5,390.7,168,398.2,165.4,402.9z"/>
<polygon class="st12" points="240.7,518.6 259.8,526.3 257.6,534.4 237.3,530.2 "/>
<path class="st11" d="M175.6,491c0,0,91.3-31.6,98.8-2.6s-61.6,49.1-97.9,47.9S175.6,491,175.6,491z"/>
<path class="st15" d="M175.6,491c0,0,91.3-31.6,98.8-2.6s-61.6,49.1-97.9,47.9S175.6,491,175.6,491z"/>
<path class="st24" d="M243.5,494l-44.3,28.3l7.1,11.6c0,0-4.3,1.4-10.2-12.8l27.4-18.1c0,0-8.7-0.9-8.4-2.2
	c0.4-2.2,19.2-6.4,27.8-8.2c0.4-0.1,0.9,0.2,0.9,0.6C243.8,493.5,243.7,493.8,243.5,494z"/>
<path class="st24" d="M197.6,521l7.7,13c-9.4,1.7-19,2.5-28.6,2.4c-3.2,0-6.3-0.6-9.3-1.7l-2.7-5.2l5.8-12.2L197.6,521z"/>
<polygon class="st25" points="198.4,523 189.7,530.2 193.7,536.3 206.8,534.3 "/>
<polygon class="st19" points="209.1,534.5 200.1,520.3 196,523.2 203.8,535.5 "/>
<polygon class="st26" points="209.1,534.5 200.1,520.3 196,523.2 203.8,535.5 "/>
<path class="st11" d="M143.5,521.3c-4.9-8.3-14.4-33.4,8.4-37.7s97.6,37.7,97.6,37.7l-3.5,10.9l-70.9-11.7c0,0,19.7,17.8-1.9,15.6
	C156.2,534.4,148.3,529.4,143.5,521.3z"/>
<polygon class="st19" points="247.7,518.6 243.3,532.9 247.7,533.5 251.7,521.1 "/>
<polygon class="st27" points="247.7,518.6 243.3,532.9 247.7,533.5 251.7,521.1 "/>
<path class="st19" d="M196.2,536l-3.1-9.5c-0.1-0.4-0.5-0.6-0.9-0.5l-8.2,0.8c-0.7,0.1-1.3,0.7-1.2,1.5l0,0v0.3
	c1.2,3.4,2.4,6.4,3.8,10.6c1.7,5,0.6,3.9,2.5,9.8c1.1,3.6,5.4,2.9,5.1,1.3c-1.4-7.2,0.4-8.6,2-12C196.4,537.6,196.5,536.7,196.2,536
	z"/>
<path class="st9" d="M258.1,525.8l-3.2,9.7c-0.1,0.4,0,0.8,0.4,1l7.3,4.4c0.6,0.4,1.5,0.2,1.9-0.5l0,0l0.1-0.3
	c1.1-3.5,1.9-6.7,3.4-11.1c1.7-5.2,1.9-3.6,4-9.7c1.2-3.6-2.7-5.7-3.5-4.2c-3.2,6.8-5.6,6.8-9,8.7
	C258.8,524.3,258.3,525,258.1,525.8z"/>
<path class="st3" d="M245.6,493.5h-41.1c-1.9,0-3.5-1.5-3.5-3.5c0,0,0,0,0,0h48.1c0,1.9-1.5,3.5-3.4,3.5
	C245.7,493.5,245.7,493.5,245.6,493.5L245.6,493.5z"/>
<path class="st5" d="M215.4,493.5h-29.8c-1.9,0-3.5-1.5-3.5-3.5c0,0,0,0,0,0h36.8c0,1.9-1.5,3.5-3.4,3.5
	C215.5,493.5,215.5,493.5,215.4,493.5L215.4,493.5z"/>
<path class="st3" d="M245.9,492.4h-27c-0.5,0-0.8-0.4-0.8-0.8c0-0.1,0-0.2,0.1-0.3l12-34.4c0.3-0.9,1.2-1.6,2.2-1.6h27
	c0.5,0,0.8,0.4,0.8,0.8c0,0.1,0,0.2,0,0.3l-12,34.4C247.8,491.8,246.9,492.4,245.9,492.4z"/>
<path class="st5" d="M247,492.4h-27c-0.5,0-0.8-0.4-0.8-0.8c0,0,0,0,0,0c0-0.1,0-0.2,0-0.3l12-34.4c0.3-0.9,1.2-1.6,2.2-1.6h27
	c0.5,0,0.8,0.4,0.8,0.8c0,0.1,0,0.2,0,0.3l-12,34.4C248.9,491.8,248,492.4,247,492.4z"/>
<path class="st14" d="M242.4,473.9c-0.3,1.3-1.2,2.4-2,2.4s-1.3-1.1-1-2.4s1.2-2.4,2-2.4S242.7,472.6,242.4,473.9z"/>
<path class="st12" d="M151.5,422.8c0,0,6.6,32.5,11.1,37.9s23.8,19.9,23.8,19.9l11.5-2.4l8.3,6.9l-5.4,4.3l-6.4-2.4
	c-3.5,0.6-7,0.9-10.6,0.9c-6,0-30.1-14.2-34.9-22.2s-11.5-38.1-11.5-38.1L151.5,422.8z"/>
<path class="st9" d="M161.6,403.1l4.1-2.4l10.1,11.1c0,0-5.5-2.2-7.1-1.3s-0.4,4.4-2.1,4.4C163,415,161.6,403.1,161.6,403.1z"/>
<path class="st16" d="M161.6,403.1l4.1-2.4l10.1,11.1c0,0-5.5-2.2-7.1-1.3s-0.4,4.4-2.1,4.4C163,415,161.6,403.1,161.6,403.1z"/>
<path class="st9" d="M175.8,411.8l5.2-10.4l4.3,2.3c0,0,4,10.1,0.9,11.1c-1.9,0.6-2.6-4-4.4-4.7
	C180.4,409.6,175.8,411.8,175.8,411.8z"/>
<path class="st16" d="M175.8,411.8l5.2-10.4l4.3,2.3c0,0,4,10.1,0.9,11.1c-1.9,0.6-2.6-4-4.4-4.7
	C180.4,409.6,175.8,411.8,175.8,411.8z"/>
<path class="st9" d="M138.6,438.9c0,0-7.6-23.1,2.4-30.9s14.8,26.7,14.8,26.7L138.6,438.9z"/>
<path class="st16" d="M138.6,438.9c0,0-7.6-23.1,2.4-30.9s14.8,26.7,14.8,26.7L138.6,438.9z"/>
<path class="st13" d="M167,387.2c0-0.6-0.1-1.3-0.2-1.9l14.7,11.6c-0.5,1.6-0.9,3.3-1.1,5C171.4,401.9,168.1,392.1,167,387.2z"/>
<path class="st12" d="M169.5,368.4c-3.1,10.4-4.6,14.7-1.4,21.7c4.9,10.6,18.2,12.1,24.2,2.9c5.4-8.3,9.6-23.8,1.1-31.5
	c-6-5.5-15.3-5.1-20.8,0.9C171.2,364.1,170,366.2,169.5,368.4L169.5,368.4z"/>
<path class="st11" d="M167.5,374.5c2-0.1,3.5-1.7,3.5-3.7c0-0.3,0-0.6-0.1-0.8c0,0,6.4-0.2,6.7-4.9c0,0,5.6,5,7.6,1.1
	c0,0,6.9,6.1,7.8,2.1c0,0,7.1,8.9,6.8,3.5c0,0,8.1-0.8,0.8-7.8c0,0,6.6-5.8-4.1-8.1c0,0,0.9-6.9-6.6-3.8c0,0-1.7-7.5-8.2-3.1
	c0,0-3.5-5.2-7.4,1.7c0,0-5.7-3.2-7.5,4.1c0,0-10.3,1.2-6,8c0,0,3.2,22.7,6,22.7C168.7,385.3,167.5,374.5,167.5,374.5z"/>
<path class="st12" d="M163.9,375.5c0.1,2.1,1,4.1,2.5,5.5c2,1.9,4.3,0.4,4.8-2.2s0-6.1-2.6-6.9c-1.8-0.6-3.8,0.3-4.4,2.1
	c0,0,0,0,0,0l-0.1,0.1C164,374.6,163.9,375,163.9,375.5z"/>
<path class="st3" d="M109.1,386.6c0,0-36.9,189.4,85.1,192.9c111.2,3.2,86.3-87.7,79.1-94s19.9,58.3-24.9,59.2
	c-54,1.1-63.7-50.2-81.8-50.6s-45.4,23.5-48.1-19.9S130,357.2,109.1,386.6z"/>
<path class="st9" d="M558.9,444.9c-5.6,1.6-5.9,9.1-0.8,27.6s8.8,30.3,18.6,25.9s21.1-16.4,21.1-16.4l-4.9-8c0,0-16,13.7-19.3,11.1
	S567.5,442.5,558.9,444.9z"/>
</svg>
